<?xml version="1.0" encoding="UTF-8"?>
<svg id="Layer_1" xmlns="http://www.w3.org/2000/svg" version="1.1" viewBox="0 0 2235.55 2195.21">
  <!-- Generator: Adobe Illustrator 29.6.0, SVG Export Plug-In . SVG Version: 2.1.1 Build 207)  -->
  <defs>
    <style>
      .st0 {
        fill: #009ddc;
      }
    </style>
  </defs>
  <path class="st0" d="M1767.77,1019.14q10.09,1.12,15.03,2.41c1.06.27,2.12.53,3.21.81,2.18.56,4.35,1.13,6.52,1.7,11.37,2.86,21.5,1.87,33.05.8q56.61-5.15,77.19,10.28.8-.4,1.62-.82,1.18-.59,2.38-1.18,1.39-.69,2.81-1.4c12.63-6.09,24.94-8.72,38.9-8.8.81,0,1.63-.01,2.47-.02,1.72,0,3.43-.02,5.15-.02,2.57,0,5.13-.04,7.7-.07,19.02-.12,36.91,2.42,52.97,13.31.61.4,1.23.81,1.86,1.23,13.38,10.03,19.03,28.79,21.52,44.46,1.41,10.6.99,21.4.92,32.07-.02,3.43-.02,6.86-.02,10.29,0,6.47-.03,12.93-.06,19.4-.03,7.37-.05,14.75-.07,22.12-.03,15.14-.09,30.28-.15,45.43h-51q-.06-12.57-.11-25.39c-.03-6-.07-12-.11-18-.05-7.76-.1-15.53-.12-23.29-.03-6.81-.07-13.62-.12-20.42-.02-2.59-.03-5.18-.03-7.77,0-3.64-.04-7.28-.07-10.93,0-1.06,0-2.12,0-3.21-.12-9.36-1.07-19.68-7.44-26.98-6.74-4.88-13.73-4.21-21.75-4.25-1.15-.02-2.31-.04-3.5-.06-7.54-.03-14.23.08-20.06,5.44-5.38,9.16-5.84,18.92-5.89,29.3,0,1.14-.02,2.28-.03,3.46-.03,3.77-.06,7.53-.08,11.3-.02,2.61-.04,5.23-.06,7.84-.05,6.17-.09,12.35-.14,18.52-.05,7.72-.12,15.44-.18,23.16-.11,13.77-.21,27.53-.31,41.3h-52q-.04-12.28-.08-24.81c-.03-5.88-.06-11.76-.09-17.63-.04-7.6-.08-15.19-.1-22.79-.01-6.67-.05-13.33-.1-20-.01-2.53-.02-5.06-.02-7.6q.56-21.7-6.25-41.9c-12.24-11.78-43.29-5.27-52.36-5.27v140h-51v-192Z"/>
  <path class="st0" d="M896.77,1017.14q19,4,26.5,6.31c10.88,3,22.24,1.51,33.36.82,7.36-.45,14.72-.82,22.08-1.19.87-.04,1.73-.09,2.63-.13,11.94-.6,23.87-1.03,35.82-1.1,1.51,0,3.01-.02,4.52-.04,19.81-.23,38.24,4.26,53.16,17.84,13.24,13.93,18.12,33.23,18.18,51.93,0,1.97.04,3.95.07,5.92.07,18.47-4.34,37.23-17.45,50.87-4.85,4.53-9.96,7.81-15.87,10.78,5.85,7.13,12.42,13.49,18.97,19.95,5.34,5.27,10.59,10.56,15.47,16.27,3.01,3.44,6.34,6.56,9.63,9.73,1.34,1.31,2.64,2.68,3.92,4.05v2c-8.43.23-16.86.41-25.3.52-3.92.05-7.83.12-11.75.24-3.79.11-7.57.17-11.36.19-1.44.02-2.88.05-4.31.11-6,.22-11.24.38-16.33-3.2-2.53-2.5-4.76-5.05-6.95-7.85-1.22-1.4-2.45-2.8-3.69-4.19-.55-.64-1.1-1.29-1.67-1.95-2.19-2.48-4.54-4.77-6.9-7.09-1.81-1.84-3.5-3.76-5.18-5.71-.55-.63-1.11-1.25-1.68-1.89-1.21-1.4-2.4-2.82-3.53-4.28-3.75-4.39-6.47-6.4-12.31-6.89-2.28-.04-4.57-.04-6.86,0-1.21-.01-2.42-.02-3.67-.03-3.84-.03-7.68,0-11.52.03-2.61,0-5.23-.02-7.84-.04-6.39-.04-12.77,0-19.16.04v42h-51v-194ZM947.77,1070.14v53q11.87.12,23.75.2c4.86.02,9.71.05,14.57.11,3.92.04,7.85.07,11.77.08,1.48,0,2.97.02,4.45.04,12.65.18,26-.55,36.47-8.42,4.82-6.83,3.87-18,3-26-1.33-5.86-3.36-11.98-8-16-8.64-3.92-17.44-3.38-26.72-3.29-1.71,0-3.43,0-5.14.01-4.48.01-8.97.04-13.45.07-5.39.04-10.79.05-16.18.07-8.17.03-16.34.09-24.51.14Z"/>
  <path class="st0" d="M1101.47,863.97c2.21,0,4.42,0,6.63,0,7.81,0,15.62-.01,23.42-.01,6.34,0,12.68,0,19.02-.02,36.12-.08,72.15.06,108.23,2.21,1.37.08,2.73.16,4.1.24,7.7.45,15.4.98,23.09,1.58,1.11.08,2.21.17,3.35.25,72.98,5.56,149.98,15.13,217.16,45.89,2.21,1.01,4.43,1.99,6.65,2.97,21.51,9.59,44.21,22.96,60.64,40.08v1c-12.41.23-24.81.41-37.22.52-5.76.05-11.52.12-17.28.24-5.57.11-11.14.17-16.71.19-2.12.02-4.23.05-6.35.11-14.5.36-22.57-1.4-33.44-11.06-3.32-2.17-6.73-4.13-10.19-6.06-.89-.5-1.78-1-2.7-1.52-62.99-35.02-137.04-45.01-207.92-50.1-.85-.06-1.69-.12-2.56-.18-21.91-1.55-43.78-2.29-65.75-2.3-2.36,0-4.72,0-7.08-.01-4.92,0-9.84,0-14.76,0-4.95,0-9.91,0-14.86-.02-29.79-.08-59.45.2-89.18,2.21-1.17.08-2.35.16-3.55.24-6.55.45-13.09.98-19.63,1.58-.94.08-1.88.17-2.85.25-67.11,6.03-163.83,15.8-213.96,65.93-3.11.1-6.19.13-9.29.11-.98,0-1.95,0-2.96,0-3.24,0-6.48,0-9.72-.02-2.24,0-4.48,0-6.72,0-5.91,0-11.82-.01-17.73-.02-6.03-.01-12.05-.01-18.08-.02-11.83-.01-23.67-.03-35.5-.05,39.01-39.05,94.32-57.71,147-70,1.14-.27,2.29-.54,3.47-.82,60.94-14.22,124.15-19.44,186.53-22.18q1.35-.06,2.73-.12c17.99-.79,35.96-1.04,53.96-1.04Z"/>
  <path class="st0" d="M324.77,1024.14h71q9.2,18.4,12.19,24.93.52,1.13,1.05,2.28c1.11,2.41,2.21,4.81,3.32,7.22.79,1.72,1.58,3.43,2.37,5.15,5.85,12.72,11.66,25.47,17.44,38.22,4.17,9.2,8.36,18.38,12.56,27.56.67,1.46,1.34,2.92,2,4.38,3.05,6.67,6.11,13.35,9.17,20.02,6.69,14.59,13.36,29.19,19.89,43.85.51,1.14,1.02,2.29,1.55,3.47.46,1.03.92,2.07,1.39,3.13.4.9.8,1.81,1.21,2.74q.85,2.04.85,3.04h-56c-4.94-9.87-9.52-19.92-14-30h-101c-4.29,9.57-8.58,19.14-13,29q-1,1-3.21,1.12c-.97,0-1.95,0-2.95,0-1.1,0-2.2,0-3.34,0-1.2,0-2.4-.01-3.63-.02-1.22,0-2.44,0-3.7,0-3.91,0-7.83-.02-11.74-.03-2.65,0-5.29,0-7.94-.01-6.5-.01-13-.03-19.5-.05.76-4.18,2.04-7.61,3.82-11.48.29-.63.58-1.26.87-1.91.95-2.08,1.91-4.16,2.87-6.24.68-1.48,1.35-2.95,2.03-4.43,1.42-3.09,2.84-6.19,4.26-9.28,2.05-4.46,4.1-8.93,6.14-13.4.66-1.44,1.31-2.88,1.97-4.32.33-.71.65-1.42.99-2.16,1.67-3.66,3.34-7.31,5.01-10.96.33-.73.67-1.46,1.01-2.21,1.35-2.94,2.69-5.89,4.04-8.83,2.35-5.14,4.7-10.28,7.05-15.42.33-.72.66-1.45,1-2.2,4.52-9.87,9.02-19.75,13.51-29.64,2.81-6.18,5.62-12.36,8.43-18.54.35-.76.69-1.52,1.05-2.31,2.17-4.77,4.35-9.55,6.52-14.32.69-1.52,1.38-3.03,2.07-4.55.96-2.12,1.93-4.23,2.9-6.35q.41-.91.84-1.85c2.42-5.28,5.02-10.42,7.62-15.63ZM357.77,1069.14c-.42.94-.83,1.88-1.26,2.84-1.61,3.63-3.22,7.26-4.84,10.89-.72,1.63-1.45,3.26-2.17,4.9-3.88,8.73-7.76,17.47-11.69,26.18-.3.68-.61,1.35-.92,2.05-1.43,3.19-2.87,6.38-4.31,9.56-.51,1.12-1.01,2.24-1.53,3.4q-.66,1.47-1.34,2.97-1,1.96-.94,3.2h63c-2.94-7.64-5.83-15.13-9.21-22.56-.38-.84-.76-1.68-1.15-2.54-1.19-2.63-2.38-5.26-3.58-7.9-.79-1.76-1.59-3.52-2.38-5.27-4.18-9.26-8.4-18.51-12.68-27.73h-5Z"/>
  <path class="st0" d="M1428.77,1023.14h51c.04,8.31.07,16.61.11,25.17.03,5.95.07,11.9.11,17.85.05,7.7.1,15.39.12,23.09.03,6.75.07,13.5.12,20.25.02,2.57.03,5.14.03,7.71,0,3.61.04,7.22.07,10.83,0,1.05,0,2.1,0,3.18.14,10.83,1.87,21.67,9.44,29.92,3.67,2.47,7.44,2.31,11.71,2.32.78.01,1.57.02,2.37.03,2.53.03,5.06.05,7.59.06,1.56.02,3.13.03,4.69.05,5.79.06,11.59.11,17.38.16q19.43.19,39.25.38v-141h51v193q-12.21-2.22-16.39-3.55c-17.02-4.99-32.74-4.68-50.18-3.47-3.71.25-7.41.45-11.12.65-.74.04-1.47.08-2.23.12-1.48.08-2.96.16-4.44.24-2.18.12-4.37.24-6.55.37-10.51.6-21.01,1.04-31.54,1.08-1.45,0-2.9.02-4.35.04-18.09.28-35.5-4.3-48.96-16.89-14.66-14.7-19.43-36.98-19.48-57.07,0-1.11.01-2.23.02-3.37,0-1.21,0-2.42,0-3.67,0-3.28.01-6.55.03-9.83.01-3.44.01-6.88.02-10.32,0-6.49.02-12.99.04-19.48.02-7.4.03-14.81.04-22.21.02-15.21.06-30.42.1-45.63Z"/>
  <path class="st0" d="M565.77,1024.14h195q-10,42-11,45h-62v141h-50v-141h-61c-2.56-7.67-4.7-15.3-6.64-23.13-.55-2.2-1.1-4.39-1.66-6.58-.35-1.4-.7-2.81-1.05-4.21-.32-1.26-.63-2.52-.96-3.83q-.69-3.25-.69-7.25Z"/>
  <path class="st0" d="M1238.77,1024.14h51v186h-51v-186Z"/>
  <path class="st0" d="M1536.77,1283.14q8,0,9.84,1.15c.39.54.78,1.08,1.18,1.63.46.6.92,1.21,1.39,1.83.46.66.93,1.32,1.4,2,1.04,1.39,2.08,2.78,3.11,4.16.51.71,1.03,1.41,1.56,2.14,2.26,3.08,4.64,6.07,7.02,9.07.91,1.16,1.81,2.31,2.72,3.47,2.9,3.7,5.84,7.36,8.78,11.03,4.31,5.38,8.59,10.78,12.84,16.21,4.05,5.17,8.16,10.3,12.28,15.41,2.07,2.58,4.05,5.13,5.88,7.88.33-25.08.66-50.16,1-76h8v92q-7,0-9.63-2.5c-.85-1.15-1.68-2.32-2.49-3.5-.95-1.29-1.9-2.58-2.85-3.87-.49-.68-.98-1.36-1.49-2.05-2.58-3.48-5.35-6.8-8.1-10.14-4.73-5.78-9.31-11.65-13.84-17.59-2.96-3.84-6.02-7.59-9.09-11.34-4.9-6-9.69-12.07-14.38-18.23-2-2.62-4.06-5.19-6.12-7.77-.33,25.41-.66,50.82-1,77h-8v-92Z"/>
  <path class="st0" d="M614.77,1283.14q8,0,9.94,1.26c.44.59.88,1.18,1.33,1.78.51.65,1.02,1.31,1.54,1.98q.77,1.07,1.56,2.16c.56.73,1.11,1.46,1.69,2.21,1.67,2.19,3.3,4.39,4.94,6.6,1.68,2.2,3.37,4.38,5.06,6.56.8,1.04,1.59,2.09,2.41,3.16,3.26,4.26,6.63,8.43,9.99,12.62,3.82,4.76,7.6,9.55,11.37,14.36,4.05,5.17,8.16,10.3,12.28,15.41,2.07,2.58,4.05,5.13,5.88,7.88.33-25.08.66-50.16,1-76h8v92q-7,0-9.63-2.5c-.85-1.15-1.68-2.32-2.49-3.5-.95-1.29-1.9-2.58-2.85-3.87-.49-.68-.98-1.36-1.49-2.05-2.58-3.48-5.35-6.8-8.1-10.14-4.73-5.78-9.31-11.65-13.84-17.59-2.96-3.84-6.02-7.59-9.09-11.34-4.9-6-9.69-12.07-14.38-18.23-2-2.62-4.06-5.19-6.12-7.77-.33,25.41-.66,50.82-1,77h-8v-92Z"/>
  <path class="st0" d="M1467.66,1287.8c10.69,7.1,17.52,17.21,20.69,29.6,2.07,13.43.92,27.15-6.58,38.74-.99,1.34-1.98,2.68-3,4-.58.87-1.15,1.73-1.75,2.62-8.68,9.16-19.16,13.4-31.62,13.85-14.19.16-24.81-2.88-35.63-12.47-9.81-10.35-13.4-22.91-13.37-36.84.38-13.47,6.14-25.98,15.89-35.27,15.84-12.05,37.96-14.24,55.37-4.23ZM1412.77,1303.14c-7.2,10.5-9.1,20.38-8,33,2.42,11.47,8.25,21.34,18,28,9.84,5.8,20.07,6.51,31.11,4.41,9.83-3,17.44-10.45,22.7-19.12,4.99-9.65,5.81-20.87,3.49-31.45-3.63-10.81-10.07-19.58-19.93-25.39-17-8.22-35.17-3.52-47.38,10.54Z"/>
  <path class="st0" d="M938.73,1287.9c10.72,7.29,17.67,17.43,20.65,30.11.64,3.48.73,6.9.7,10.44,0,.74-.01,1.48-.02,2.25-.28,12.63-4.73,23.8-13.3,33.19-11.12,10.53-23.9,12.83-38.64,12.59-11.27-.48-20.43-5.36-28.36-13.34-10.83-12.72-13.26-26.74-12-43,1.57-9.01,5.2-16,11-23,.5-.64,1-1.27,1.52-1.93,13.95-15.88,40.99-17.73,58.44-7.31ZM884.45,1302.08c-8.09,9.94-9.49,21.66-8.67,34.05,1.91,11.7,8.55,21.08,18,28,9.55,5.81,20.27,6.42,31.14,4.42,8.9-2.8,16.77-9.54,21.83-17.37,5.37-10.73,6.95-22.64,3.9-34.3-3.62-10.22-9.7-18.78-19.31-24.1-16.87-7.74-34.07-3.92-46.89,9.29Z"/>
  <path class="st0" d="M743.77,1283.14q7,0,9.74,2.39c.88,1.08,1.74,2.18,2.57,3.3.47.59.94,1.18,1.42,1.78,1.45,1.83,2.86,3.67,4.27,5.53.82,1.07,1.65,2.13,2.47,3.2,1.21,1.57,2.42,3.14,3.62,4.72,3.38,4.44,6.88,8.77,10.41,13.09,4.76,5.82,9.39,11.72,13.95,17.7,3.37,4.4,6.86,8.71,10.35,13.01.47.59.95,1.17,1.44,1.78q.62.76,1.25,1.54c2.25,2.93,4.36,5.96,6.51,8.97.33-25.41.66-50.82,1-77h7v92q-6,0-7.73-1.26c-.48-.62-.96-1.23-1.46-1.87q-.88-1.1-1.78-2.22c-.67-.88-1.34-1.75-2.03-2.65-1.27-1.6-2.54-3.21-3.8-4.81-1.42-1.8-2.83-3.61-4.24-5.41-2.95-3.78-5.95-7.53-8.96-11.28-5.26-6.55-10.46-13.15-15.64-19.76-1.38-1.76-2.76-3.51-4.14-5.27q-.7-.89-1.41-1.79c-1.27-1.61-2.54-3.22-3.81-4.84-4.36-5.59-8.67-11.22-13-16.84-.33,25.74-.66,51.48-1,78h-7v-92Z"/>
  <path class="st0" d="M1146.77,1282.14h8c9.09,19.11,18.09,38.26,26.79,57.55,4,8.87,8.11,17.68,12.42,26.4.37.77.75,1.53,1.13,2.32.32.65.65,1.31.98,1.98q.68,1.74.68,4.74h-8c-1.28-2.48-2.55-4.95-3.81-7.44-.36-.69-.71-1.38-1.08-2.08q-.53-1.04-1.06-2.1c-.32-.62-.64-1.25-.97-1.89-1.61-3.73-2.79-7.64-4.07-11.49h-54c-.99,2.97-1.98,5.94-3,9-.64,1.48-1.31,2.95-2.04,4.38-.35.69-.7,1.39-1.06,2.1-.36.69-.71,1.38-1.08,2.08-.37.72-.74,1.45-1.12,2.19-.89,1.75-1.79,3.5-2.7,5.25h-8c1.52-4.94,3.53-9.51,5.72-14.18.37-.8.74-1.59,1.12-2.41.8-1.72,1.6-3.44,2.4-5.15,1.27-2.72,2.53-5.43,3.8-8.15,1.31-2.83,2.63-5.65,3.95-8.48,4.3-9.22,8.57-18.46,12.83-27.69,1.16-2.51,2.32-5.01,3.48-7.52.71-1.54,1.43-3.09,2.14-4.63.32-.69.64-1.37.96-2.08,1.94-4.2,3.79-8.43,5.6-12.69ZM1149.77,1293.14c-2.33,5.05-4.66,10.1-6.99,15.15-.79,1.71-1.58,3.43-2.37,5.14-1.15,2.48-2.29,4.96-3.43,7.45-.35.75-.69,1.49-1.05,2.26-2.89,6.28-5.49,12.61-8.16,19h46c-7.08-16.46-14.43-32.76-22-49h-2Z"/>
  <path class="st0" d="M1722.26,1290.67c.5.48,1,.97,1.51,1.46,0,3.52-.82,4.37-3,7-4.91-1.87-9.5-4.25-14.16-6.66-7.3-3.45-16.68-3.74-24.34-1.15-4.51,2.33-7.35,4.73-9.81,9.19-1.2,4.59-1.25,8.23.54,12.66,4.48,7.47,14.34,9.22,22.29,11.21,1.01.25,2.02.5,3.05.75q19.62,4.83,25.56,12.69c3.88,6.85,4.21,15.19,2.23,22.8-3.08,6.79-8.45,10.94-15.16,13.89-11.9,3.9-25.87,2.73-37.19-2.38-5.11-2.8-10.01-5.71-14-10l3-6c3.59.61,5.65,2.1,8.5,4.31,9.65,6.86,19.75,9.05,31.5,7.69,4.99-1.23,8.76-2.82,12.5-6.38,2.89-5.05,3.76-8.89,3.18-14.6-1.28-3.81-3.58-6.36-6.99-8.43-6.52-2.65-12.97-4.47-19.81-6.09-11.12-2.66-20.31-5.48-26.88-15.5-2.73-6.78-2.9-13.21-.1-19.95,4.05-7.55,9.82-11.97,17.84-14.63,14.04-2.62,27.95.13,39.75,8.11Z"/>
  <path class="st0" d="M994.77,1283.14h9c2.81,6.59,5.62,13.18,8.43,19.78,1.31,3.06,2.61,6.13,3.92,9.19,7.25,17,14.47,34.01,21.66,51.03,2.32-2.89,3.87-5.67,5.31-9.08.43-1.01.86-2.03,1.31-3.07.46-1.09.92-2.19,1.39-3.32.48-1.14.97-2.29,1.47-3.46,1.29-3.05,2.58-6.1,3.87-9.15,1.28-3.03,2.56-6.05,3.84-9.07,1.99-4.71,3.98-9.41,5.97-14.12,2.67-6.31,5.34-12.62,8.03-18.92.38-.89.75-1.77,1.14-2.68.34-.8.68-1.6,1.03-2.42.3-.7.59-1.39.9-2.11q.75-1.6,1.75-2.6c2.67-.14,5.32-.04,8,0-1.89,5.99-4.07,11.74-6.63,17.48-.35.79-.7,1.58-1.06,2.4-1.14,2.58-2.29,5.17-3.43,7.75-1.21,2.73-2.41,5.46-3.61,8.19-.83,1.88-1.66,3.76-2.49,5.63-2.91,6.59-5.8,13.18-8.67,19.79-.39.9-.78,1.79-1.18,2.72-1.51,3.47-3.02,6.95-4.53,10.42-1.04,2.38-2.07,4.77-3.11,7.15-.3.7-.61,1.4-.92,2.13-1.38,3.16-2.77,6.29-4.36,9.35h-7c-7.34-15.79-14.4-31.68-21.27-47.68-1.98-4.61-3.98-9.2-5.98-13.8-1.49-3.42-2.98-6.84-4.46-10.26-.73-1.67-1.46-3.35-2.19-5.02-1.02-2.34-2.04-4.68-3.05-7.01-.31-.7-.62-1.41-.94-2.13q-2.11-4.87-2.11-7.1Z"/>
  <path class="st0" d="M1222.77,1283.14h71v7h-31v85h-8v-85h-32v-7Z"/>
  <path class="st0" d="M1339.77,1283.14h8v92h-8v-92Z"/>
  <path class="st0" d="M554.77,1283.14h7v92h-7v-92Z"/>
</svg>