<?xml version="1.0" encoding="UTF-8"?>
<svg version="1.1" xmlns="http://www.w3.org/2000/svg" width="1800" height="512">
<path d="M0 0 C10.09486416 1.12165157 10.09486416 1.12165157 15.03125 2.41015625 C16.08957031 2.67763672 17.14789062 2.94511719 18.23828125 3.22070312 C20.41370868 3.78214577 22.58819318 4.34725474 24.76171875 4.91601562 C36.1267556 7.77457849 46.25945245 6.78352777 57.80847168 5.71661377 C114.4165008 0.5623756 114.4165008 0.5623756 135 16 C135.804375 15.59587891 135.804375 15.59587891 136.625 15.18359375 C137.800625 14.59771484 137.800625 14.59771484 139 14 C140.3921875 13.30583984 140.3921875 13.30583984 141.8125 12.59765625 C154.44701226 6.51265218 166.75634999 3.8750889 180.71484375 3.796875 C181.52885147 3.79117493 182.34285919 3.78547485 183.18153381 3.77960205 C184.89843471 3.77020904 186.61535317 3.76364093 188.33227539 3.75976562 C190.89959149 3.7501421 193.46607698 3.71909844 196.03320312 3.6875 C215.04854632 3.56601706 232.93834151 6.10792866 249 17 C249.61488281 17.40476563 250.22976563 17.80953125 250.86328125 18.2265625 C264.24767213 28.25716348 269.89127522 47.01271363 272.38687134 62.68991089 C273.79730619 73.29002934 273.37353312 84.09393384 273.30418181 94.76290441 C273.28516368 98.19278316 273.28364513 101.62267369 273.28010559 105.05259705 C273.2708577 111.51906117 273.24634462 117.98536938 273.21605712 124.45176548 C273.18228413 131.82563691 273.16597014 139.19951661 273.15097082 146.57344639 C273.11978662 161.71573151 273.06486799 176.85781466 273 192 C256.17 192 239.34 192 222 192 C221.94392578 179.43164062 221.94392578 179.43164062 221.88671875 166.609375 C221.85257047 160.60891153 221.81657486 154.60848129 221.77792263 148.60804749 C221.72816434 140.84548692 221.68268844 133.08298087 221.65356445 125.3203125 C221.62800583 118.5120873 221.58701766 111.70409118 221.53681374 104.89600372 C221.520189 102.30465692 221.50864748 99.71327214 221.50238609 97.12187958 C221.49269741 93.47913315 221.46458007 89.83694367 221.43237305 86.19433594 C221.43380814 85.1340921 221.43524323 84.07384827 221.4367218 82.98147583 C221.32051098 73.62608437 220.36468053 63.30066296 214 56 C207.26495412 51.11709174 200.26785301 51.78532094 192.25 51.75 C191.095 51.729375 189.94 51.70875 188.75 51.6875 C181.20784526 51.65306094 174.5152712 51.76975079 168.6875 57.125 C163.30841185 66.28937241 162.85037597 76.04265664 162.79467773 86.42138672 C162.78477814 87.56343063 162.77487854 88.70547455 162.76467896 89.88212585 C162.73315202 93.64795882 162.70834129 97.41380439 162.68359375 101.1796875 C162.66301663 103.7942843 162.64201995 106.40887782 162.62062073 109.02346802 C162.57080575 115.19624644 162.52582564 121.36905017 162.48259836 127.54187787 C162.42827352 135.26232749 162.36746685 142.98272433 162.30664062 150.703125 C162.19821514 164.46870937 162.09956693 178.23434238 162 192 C144.84 192 127.68 192 110 192 C109.96132812 179.7178125 109.96132812 179.7178125 109.921875 167.1875 C109.8934749 161.30988368 109.86259948 155.43232077 109.8281765 149.55474091 C109.78401762 141.95901969 109.74551759 134.36341519 109.72900391 126.76757812 C109.71449159 120.10192319 109.67919376 113.43666353 109.63169098 106.77114868 C109.61695074 104.23893248 109.60896325 101.70666692 109.60811615 99.17440796 C110.17042567 77.47677417 110.17042567 77.47677417 103.36175537 57.27319336 C91.12511889 45.49541099 60.06822041 52 51 52 C51 98.2 51 144.4 51 192 C34.17 192 17.34 192 0 192 C0 128.64 0 65.28 0 0 Z " fill="#009DDC" transform="translate(1527,155)"/>
<path d="M0 0 C19 4 19 4 26.5 6.3125 C37.38141601 9.31507124 48.74445637 7.82426554 59.86230469 7.13006592 C67.21778485 6.68252914 74.57795245 6.31095298 81.9375 5.9375 C82.80475708 5.89346039 83.67201416 5.84942078 84.56555176 5.80404663 C96.50229678 5.20853673 108.43122299 4.77030909 120.38357544 4.70144653 C121.89002251 4.69232744 123.3964502 4.67842705 124.90280151 4.65914917 C144.7097579 4.43223283 163.14562913 8.91550983 178.0625 22.5 C191.30749291 36.43098856 196.18562749 55.73405596 196.24023438 74.42553711 C196.24981969 76.40035152 196.28095395 78.37502368 196.3125 80.34960938 C196.38655753 98.81770563 191.97469934 117.58309666 178.8671875 131.21875 C174.01689507 135.74794293 168.9081693 139.02563013 163 142 C168.84639566 149.12560702 175.4230284 155.48991988 181.97485352 161.9543457 C187.31427669 167.2288934 192.56480119 172.51101185 197.44213867 178.22387695 C200.45531159 181.65920574 203.78298411 184.78556042 207.07617188 187.94921875 C208.41980193 189.2639718 209.71469976 190.62816888 211 192 C211 192.66 211 193.32 211 194 C202.56773082 194.23270821 194.13682361 194.40987575 185.70212746 194.51812172 C181.78446914 194.57010273 177.86902221 194.64047451 173.95263672 194.75439453 C170.16580222 194.8638444 166.38108001 194.92299941 162.59278488 194.94877243 C161.15492892 194.96711259 159.71717617 195.00293069 158.28023148 195.05730057 C152.28188279 195.27503016 147.04505248 195.43891695 141.95062256 191.85443115 C139.41932189 189.35122598 137.19272751 186.8010048 135 184 C133.77651344 182.59918522 132.54848667 181.20229795 131.3125 179.8125 C130.76207031 179.16925781 130.21164062 178.52601563 129.64453125 177.86328125 C127.4560463 175.38369142 125.10455987 173.0937882 122.74609375 170.77734375 C120.93522357 168.93406426 119.24678646 167.02177201 117.5625 165.0625 C117.00973389 164.43730469 116.45696777 163.81210937 115.88745117 163.16796875 C114.6725428 161.77249775 113.49067443 160.34719075 112.35253906 158.88842773 C108.60368884 154.49430899 105.87938573 152.48990655 100.04296875 152 C97.75816806 151.95968983 95.47233717 151.96181375 93.1875 152 C91.97803711 151.98912354 90.76857422 151.97824707 89.52246094 151.96704102 C85.68072457 151.94096251 81.84166396 151.96968247 78 152 C75.38670501 151.99190529 72.77341851 151.98022551 70.16015625 151.96484375 C63.77178137 151.92833875 57.38993822 151.96601097 51 152 C51 165.86 51 179.72 51 194 C34.17 194 17.34 194 0 194 C0 129.98 0 65.96 0 0 Z M51 53 C51 70.49 51 87.98 51 106 C62.8730097 106.11669957 62.8730097 106.11669957 74.74609375 106.1953125 C79.60190724 106.21905367 84.45741386 106.24687161 89.31298828 106.30175781 C93.23582781 106.34581371 97.15833746 106.36926019 101.08140564 106.37950897 C102.5642566 106.38679496 104.04709334 106.40101572 105.52980042 106.42292023 C118.18089021 106.60206821 131.53230778 105.87699084 142 98 C146.81858001 91.16610193 145.87066191 79.99618984 145 72 C143.67338097 66.13566356 141.64244875 60.01509081 137 56 C128.36280295 52.07638616 119.55817705 52.61750716 110.27734375 52.70703125 C108.56385166 52.71263502 106.85035472 52.71690142 105.13685608 52.71989441 C100.65368087 52.73128179 96.1708029 52.76069551 91.68774414 52.79400635 C86.29449861 52.83027251 80.90115301 52.84389751 75.50782013 52.86136627 C67.33834079 52.89033724 59.1695121 52.9478665 51 53 Z " fill="#009DDC" transform="translate(656,153)"/>
<path d="M0 0 C2.21113245 -0.00072567 4.42225919 -0.00288754 6.63339019 -0.00549722 C14.44123819 -0.01467736 22.24906946 -0.01884225 30.05692267 -0.01804566 C36.39679235 -0.01751538 42.73660001 -0.02452787 49.07645392 -0.03855348 C85.19958854 -0.11659653 121.23063825 0.0180491 157.30521369 2.16725707 C158.67185176 2.24628248 160.03849966 2.32513801 161.40515876 2.40379882 C169.10712376 2.85587675 176.80040506 3.38677039 184.49271369 3.97975707 C185.59969611 4.06340514 186.70667853 4.14705321 187.84720588 4.23323607 C260.82441891 9.78837596 337.83214456 19.35883295 405.01029181 50.11891723 C407.21985834 51.12826602 409.44026304 52.10892667 411.66458869 53.08522582 C433.1780494 62.67876445 455.87805375 76.04946578 472.30521369 93.16725707 C472.30521369 93.49725707 472.30521369 93.82725707 472.30521369 94.16725707 C459.90018031 94.39988903 447.49567338 94.57710851 435.08889556 94.68537879 C429.32655395 94.73736836 423.5657144 94.80777828 417.80423713 94.9216516 C412.2343933 95.03103698 406.66598553 95.09025003 401.09514976 95.1160295 C398.97968308 95.13437813 396.86428701 95.17020869 394.749439 95.22455764 C380.25374611 95.58195389 372.17622134 93.82301017 361.30521369 84.16725707 C357.98975089 81.99517181 354.57651882 80.03876065 351.11771369 78.10475707 C350.22608527 77.60290893 349.33445685 77.10106078 348.41580939 76.58400512 C285.42500905 41.56310444 211.37930543 31.57644046 140.49271369 26.47975707 C139.64681678 26.41881866 138.80091987 26.35788024 137.92938972 26.29509521 C116.01673083 24.74012754 94.15105473 24.00654373 72.18411994 23.99928832 C69.82417001 23.99605764 67.46422026 23.99269238 65.1042707 23.98920226 C60.18386093 23.98326564 55.26346857 23.98135642 50.34305549 23.98195434 C45.38989298 23.98203515 40.43682385 23.97515509 35.48368049 23.96144652 C5.69634888 23.88035116 -23.96810157 24.16168603 -53.69478631 26.16725707 C-54.86764184 26.24531585 -56.04049737 26.32337462 -57.24889398 26.40379882 C-63.80081648 26.85284619 -70.34213365 27.3846246 -76.88228631 27.97975707 C-77.82384576 28.06373748 -78.76540521 28.14771789 -79.73549676 28.23424315 C-146.84935216 34.26228762 -243.56371259 44.03618335 -293.69478631 94.16725707 C-296.79985881 94.2625936 -299.88265089 94.29276833 -302.9879992 94.28078246 C-303.96350228 94.28092849 -304.93900537 94.28107451 -305.94406915 94.28122497 C-309.18521584 94.2805254 -312.42630585 94.27273098 -315.66744256 94.26491332 C-317.90803774 94.2630493 -320.14863333 94.26162532 -322.38922906 94.2606256 C-328.29938141 94.2567992 -334.20950936 94.24696787 -340.11965203 94.23592162 C-346.14534448 94.22571013 -352.17104084 94.22112854 -358.19673944 94.2160852 C-370.02943247 94.20534571 -381.86210737 94.18826783 -393.69478631 94.16725707 C-354.68717261 55.11569788 -299.37662455 36.45662542 -246.69478631 24.16725707 C-245.55090447 23.89719848 -244.40702264 23.62713988 -243.22847772 23.3488977 C-182.29215192 9.12661736 -119.07380086 3.91114361 -56.69478631 1.16725707 C-55.34307163 1.10646264 -55.34307163 1.10646264 -53.96404958 1.04444003 C-35.97408313 0.25161344 -18.00464361 0.00334606 0 0 Z " fill="#009DDC" transform="translate(860.6947863101959,-0.16725707054138184)"/>
<path d="M0 0 C23.43 0 46.86 0 71 0 C80.19847706 18.39695411 80.19847706 18.39695411 83.19140625 24.93359375 C83.71233604 26.06303154 83.71233604 26.06303154 84.24378967 27.21528625 C85.35266436 29.62148708 86.45772102 32.0294163 87.5625 34.4375 C88.35256608 36.15468486 89.14277048 37.87180608 89.93310547 39.58886719 C95.78510416 52.31259851 101.58995375 65.05765344 107.37493896 77.81196594 C111.54574771 87.0073084 115.73784722 96.19279904 119.9375 105.375 C120.60531463 106.83560803 121.27312062 108.29622001 121.94091797 109.75683594 C124.99304726 116.43148879 128.04753742 123.10504879 131.10694885 129.77636719 C137.79725902 144.36618047 144.46909709 158.96298501 151 173.625 C151.51079102 174.7696875 152.02158203 175.914375 152.54785156 177.09375 C153.00643555 178.12757813 153.46501953 179.16140625 153.9375 180.2265625 C154.33839844 181.12971191 154.73929688 182.03286133 155.15234375 182.96337891 C156 185 156 185 156 186 C137.52 186 119.04 186 100 186 C95.06486519 176.12973039 90.48185856 166.08418175 86 156 C52.67 156 19.34 156 -15 156 C-19.29 165.57 -23.58 175.14 -28 185 C-29 186 -29 186 -31.20826721 186.12025452 C-32.18311569 186.11803391 -33.15796417 186.11581329 -34.16235352 186.11352539 C-35.26341934 186.11344986 -36.36448517 186.11337433 -37.49891663 186.11329651 C-38.6968132 186.10813522 -39.89470978 186.10297394 -41.12890625 186.09765625 C-42.34827377 186.0962413 -43.5676413 186.09482635 -44.82395935 186.09336853 C-48.7368307 186.08774967 -52.64964581 186.07519396 -56.5625 186.0625 C-59.20768147 186.05748743 -61.85286383 186.0529241 -64.49804688 186.04882812 C-70.99871726 186.03777411 -77.49935461 186.02101764 -84 186 C-83.23535856 181.82164563 -81.96367691 178.39390113 -80.18359375 174.5234375 C-79.8958609 173.89383118 -79.60812805 173.26422485 -79.31167603 172.61553955 C-78.35856142 170.53305268 -77.39802222 168.45407927 -76.4375 166.375 C-75.75982429 164.89785802 -75.08266935 163.42047703 -74.40600586 161.94287109 C-72.98786189 158.84804819 -71.5668421 155.75457013 -70.14355469 152.66210938 C-68.09064251 148.2001037 -66.04748494 143.73369585 -64.0078125 139.265625 C-63.35091438 137.82682158 -62.69401334 136.3880195 -62.03710938 134.94921875 C-61.71202393 134.23717285 -61.38693848 133.52512695 -61.05200195 132.79150391 C-59.38258347 129.13633006 -57.71086167 125.48221045 -56.0390625 121.828125 C-55.7060614 121.1002478 -55.3730603 120.37237061 -55.02996826 119.62243652 C-53.68324546 116.67884688 -52.33643258 113.73529846 -50.98962402 110.79174805 C-48.63847591 105.65303327 -46.28770025 100.51414835 -43.9375 95.375 C-43.60597931 94.65008362 -43.27445862 93.92516724 -42.93289185 93.17828369 C-38.41771974 83.30384341 -33.9154885 73.42360802 -29.42550659 63.53768921 C-26.61860578 57.35773162 -23.80983393 51.17862449 -21 45 C-20.65352417 44.23810364 -20.30704834 43.47620728 -19.95007324 42.69122314 C-17.77854556 37.91702859 -15.60461185 33.14393934 -13.42797852 28.37207031 C-12.73673873 26.85592648 -12.04612571 25.3394967 -11.35620117 23.82275391 C-10.39285959 21.70525365 -9.42716537 19.58884074 -8.4609375 17.47265625 C-8.04616653 16.55898033 -8.04616653 16.55898033 -7.62301636 15.62684631 C-5.20606384 10.34444154 -2.60353296 5.20706592 0 0 Z M33 45 C32.58339111 45.9386792 32.16678223 46.8773584 31.73754883 47.84448242 C30.1262916 51.47444524 28.51444775 55.1041473 26.90234375 58.73373413 C26.17749515 60.36571922 25.45272265 61.9977381 24.72802734 63.62979126 C20.84895015 72.36454888 16.96369598 81.0963446 13.04296875 89.8125 C12.73897659 90.48863846 12.43498444 91.16477692 12.1217804 91.86140442 C10.68767897 95.05029001 9.25133644 98.23813949 7.81176758 101.42456055 C7.30669678 102.54644775 6.80162598 103.66833496 6.28125 104.82421875 C5.61706055 106.29507935 5.61706055 106.29507935 4.93945312 107.7956543 C3.93465639 109.75395865 3.93465639 109.75395865 4 111 C24.79 111 45.58 111 67 111 C64.06059876 103.35755677 61.16568711 95.86551063 57.78515625 88.4375 C57.40693222 87.59888428 57.02870819 86.76026855 56.63902283 85.89624023 C55.45019966 83.26263019 54.25640654 80.63130878 53.0625 78 C52.2685622 76.24233111 51.47494067 74.48451932 50.68164062 72.7265625 C46.49786092 63.46417802 42.28009037 54.21833268 38 45 C36.35 45 34.7 45 33 45 Z " fill="#009DDC" transform="translate(84,160)"/>
<path d="M0 0 C16.83 0 33.66 0 51 0 C51.03738281 8.30671875 51.07476563 16.6134375 51.11328125 25.171875 C51.14742996 31.12097565 51.18342569 37.0700428 51.22207737 43.01911354 C51.27183377 50.71503564 51.31730992 58.41090278 51.34643555 66.10693359 C51.37199595 72.85680513 51.41298529 79.60644566 51.46318626 86.35617828 C51.47980983 88.92519615 51.49135207 91.49425232 51.49761391 94.06331635 C51.50730389 97.67493164 51.53542269 101.2859855 51.56762695 104.89746094 C51.56619186 105.94835403 51.56475677 106.99924713 51.5632782 108.08198547 C51.69888914 118.90815041 53.43742298 129.75327788 61 138 C64.66637417 140.46722795 68.44119107 140.30608232 72.70605469 140.31884766 C73.48959949 140.32900091 74.2731443 140.33915417 75.08043289 140.3496151 C77.61090905 140.38019416 80.14127301 140.39739103 82.671875 140.4140625 C84.2365007 140.43100095 85.80111715 140.44881802 87.36572266 140.4675293 C93.16037552 140.53066853 98.95520357 140.5768052 104.75 140.625 C124.17875 140.810625 124.17875 140.810625 144 141 C144 94.47 144 47.94 144 0 C160.83 0 177.66 0 195 0 C195 63.69 195 127.38 195 193 C182.78833447 190.77969718 182.78833447 190.77969718 178.60839844 189.45263672 C161.5861882 184.45972997 145.86475838 184.77529761 128.43094254 185.98011398 C124.72546619 186.22627898 121.01755347 186.42557615 117.30932617 186.62524414 C116.57185622 186.66510217 115.83438627 186.70496019 115.07456875 186.74602604 C113.5945533 186.82597403 112.11453058 186.90578742 110.6345005 186.9854641 C108.44962926 187.10459441 106.26504527 187.22807733 104.08049011 187.3528595 C93.57096372 187.94924145 83.07211908 188.38986956 72.54406738 188.42791748 C71.09291756 188.43414883 69.64177285 188.44824722 68.1907959 188.47149658 C50.10203389 188.74701789 32.69282856 184.17585792 19.2331543 171.58056641 C4.57354214 156.8844694 -0.19679733 134.60164982 -0.24884033 114.51333618 C-0.24164978 113.40058319 -0.23445923 112.2878302 -0.22705078 111.14135742 C-0.22734283 109.93001633 -0.22763489 108.71867523 -0.22793579 107.47062683 C-0.22679297 104.19457076 -0.2168626 100.91869253 -0.20278788 97.64267135 C-0.19016287 94.20208133 -0.18910085 90.76148668 -0.18673706 87.32087708 C-0.18055649 80.8259888 -0.16419276 74.331169 -0.14403808 67.83631068 C-0.12157159 60.43349953 -0.1106588 53.03068486 -0.10064721 45.62784803 C-0.07982288 30.4185211 -0.04319026 15.20928296 0 0 Z " fill="#009DDC" transform="translate(1188,159)"/>
<path d="M0 0 C64.35 0 128.7 0 195 0 C185 42 185 42 184 45 C163.54 45 143.08 45 122 45 C122 91.53 122 138.06 122 186 C105.5 186 89 186 72 186 C72 139.47 72 92.94 72 45 C51.87 45 31.74 45 11 45 C8.44170383 37.32511148 6.30228411 29.70209734 4.35571289 21.86889648 C3.80898646 19.67339059 3.25342592 17.48024212 2.69726562 15.28710938 C2.34582213 13.88294555 1.99489205 12.47865311 1.64453125 11.07421875 C1.32846924 9.81182373 1.01240723 8.54942871 0.68676758 7.2487793 C0 4 0 4 0 0 Z " fill="#009DDC" transform="translate(325,160)"/>
<path d="M0 0 C16.83 0 33.66 0 51 0 C51 61.38 51 122.76 51 186 C34.17 186 17.34 186 0 186 C0 124.62 0 63.24 0 0 Z " fill="#009DDC" transform="translate(998,160)"/>
<path d="M0 0 C8 0 8 0 9.83520508 1.15478516 C10.22603271 1.69409668 10.61686035 2.2334082 11.01953125 2.7890625 C11.4784375 3.39363281 11.93734375 3.99820312 12.41015625 4.62109375 C12.87292969 5.28238281 13.33570313 5.94367188 13.8125 6.625 C14.85023664 8.01303861 15.88799759 9.40105904 16.92578125 10.7890625 C17.43963379 11.49579102 17.95348633 12.20251953 18.48291016 12.93066406 C20.74458991 16.0156331 23.12246011 19.00408457 25.5 22 C26.40670678 23.15589183 27.31295336 24.31214481 28.21875 25.46875 C31.12257842 29.16453162 34.05927869 32.83354798 37 36.5 C41.31210158 41.87627061 45.58751539 47.27940871 49.83569336 52.70629883 C53.88812146 57.87587881 57.99363892 63.00224135 62.1171875 68.11523438 C64.18760545 70.69070037 66.16566494 73.24849741 68 76 C68.33 50.92 68.66 25.84 69 0 C71.64 0 74.28 0 77 0 C77 30.36 77 60.72 77 92 C70 92 70 92 67.3671875 89.5 C66.514766 88.34908747 65.68528736 87.18095574 64.875 86 C63.92778599 84.70816309 62.97848099 83.41785735 62.02734375 82.12890625 C61.5360498 81.45102051 61.04475586 80.77313477 60.53857422 80.07470703 C57.95950489 76.59693312 55.19192738 73.27678817 52.4375 69.9375 C47.70861112 64.15390717 43.12321567 58.28499718 38.59375 52.34375 C35.63788931 48.50113111 32.56892111 44.75248798 29.5 41 C24.59608413 35.00376655 19.81289856 28.93296454 15.12109375 22.76953125 C13.11639719 20.15198087 11.05963561 17.57454451 9 15 C8.67 40.41 8.34 65.82 8 92 C5.36 92 2.72 92 0 92 C0 61.64 0 31.28 0 0 Z " fill="#009DDC" transform="translate(1296,419)"/>
<path d="M0 0 C8 0 8 0 9.94287109 1.26245117 C10.38195801 1.85002197 10.82104492 2.43759277 11.2734375 3.04296875 C11.78269775 3.69789307 12.29195801 4.35281738 12.81665039 5.02758789 C13.58803345 6.09674438 13.58803345 6.09674438 14.375 7.1875 C14.93243896 7.91638428 15.48987793 8.64526855 16.06420898 9.39624023 C17.73095729 11.5822218 19.36553746 13.78983608 21 16 C22.67702077 18.19574249 24.37092917 20.37789484 26.0625 22.5625 C26.85914063 23.60664063 27.65578125 24.65078125 28.4765625 25.7265625 C31.74110715 29.98522701 35.10865664 34.16084803 38.46899414 38.34399414 C42.29160602 43.10530017 46.07186212 47.89802056 49.83544922 52.70605469 C53.8880463 57.87564792 57.99356655 63.00215162 62.1171875 68.11523438 C64.18760545 70.69070037 66.16566494 73.24849741 68 76 C68.33 50.92 68.66 25.84 69 0 C71.64 0 74.28 0 77 0 C77 30.36 77 60.72 77 92 C70 92 70 92 67.3671875 89.5 C66.514766 88.34908747 65.68528736 87.18095574 64.875 86 C63.92778599 84.70816309 62.97848099 83.41785735 62.02734375 82.12890625 C61.5360498 81.45102051 61.04475586 80.77313477 60.53857422 80.07470703 C57.95950489 76.59693312 55.19192738 73.27678817 52.4375 69.9375 C47.70861112 64.15390717 43.12321567 58.28499718 38.59375 52.34375 C35.63788931 48.50113111 32.56892111 44.75248798 29.5 41 C24.59608413 35.00376655 19.81289856 28.93296454 15.12109375 22.76953125 C13.11639719 20.15198087 11.05963561 17.57454451 9 15 C8.67 40.41 8.34 65.82 8 92 C5.36 92 2.72 92 0 92 C0 61.64 0 31.28 0 0 Z " fill="#009DDC" transform="translate(374,419)"/>
<path d="M0 0 C10.68747154 7.10068027 17.52037731 17.21350267 20.69140625 29.59765625 C22.75797823 43.0303741 21.61351441 56.74684377 14.11328125 68.33984375 C13.12661668 69.68307523 12.12838733 71.01797484 11.11328125 72.33984375 C10.53578125 73.20609375 9.95828125 74.07234375 9.36328125 74.96484375 C0.68569733 84.12451567 -9.79535926 88.36611163 -22.25463867 88.81079102 C-36.44131314 88.96738264 -47.0663478 85.93062709 -57.88671875 76.33984375 C-67.69383666 65.99250324 -71.28522386 53.4308871 -71.25756836 39.49902344 C-70.88125364 26.02727133 -65.11613136 13.5222488 -55.37109375 4.23046875 C-39.5309163 -7.82400591 -17.41237937 -10.0138853 0 0 Z M-54.88671875 15.33984375 C-62.08502017 25.83861118 -63.98309397 35.71782406 -62.88671875 48.33984375 C-60.46399778 59.80647199 -54.63740324 69.67963045 -44.88671875 76.33984375 C-35.04321245 82.14310492 -24.81186285 82.85128905 -13.7734375 80.74609375 C-3.94584435 77.74360419 3.67115497 70.29878141 8.9296875 61.62890625 C13.92117213 51.97540793 14.73891696 40.76082484 12.421875 30.18359375 C8.79479434 19.37823212 2.34887606 10.60560487 -7.50390625 4.796875 C-24.50181128 -3.42568881 -42.67407013 1.28008636 -54.88671875 15.33984375 Z " fill="#009DDC" transform="translate(1226.88671875,423.66015625)"/>
<path d="M0 0 C10.71869455 7.28928625 17.66867077 17.43248156 20.65478516 30.11083984 C21.29168221 33.59494713 21.3839164 37.01205096 21.35546875 40.546875 C21.3498291 41.2888916 21.34418945 42.0309082 21.33837891 42.79541016 C21.06113932 55.4303986 16.60391547 66.59597618 8.04296875 75.984375 C-3.07747638 86.51753938 -15.86098646 88.81282905 -30.59765625 88.5703125 C-41.87161938 88.09300335 -51.02603851 83.20725678 -58.95703125 75.234375 C-69.78537448 62.5110717 -72.21561469 48.49049186 -70.95703125 32.234375 C-69.38582024 23.2235745 -65.75624802 16.23556619 -59.95703125 9.234375 C-59.456875 8.59886719 -58.95671875 7.96335937 -58.44140625 7.30859375 C-44.49556658 -8.57416809 -17.44738832 -10.41772724 0 0 Z M-54.28515625 14.1796875 C-62.37428532 24.12100033 -63.77756816 35.8351506 -62.95703125 48.234375 C-61.04522113 59.93015459 -54.40471022 69.31247146 -44.95703125 76.234375 C-35.40539648 82.04621626 -24.68632527 82.65541291 -13.8125 80.65625 C-4.90765177 77.8535796 2.9545305 71.11994667 8.015625 63.28515625 C13.38837664 52.56008169 14.96509545 40.64374004 11.91796875 28.984375 C8.30031032 18.76783961 2.21925828 10.20203508 -7.39453125 4.88671875 C-24.25965419 -2.8523755 -41.46860962 0.96616819 -54.28515625 14.1796875 Z " fill="#009DDC" transform="translate(697.95703125,423.765625)"/>
<path d="M0 0 C7 0 7 0 9.73828125 2.38671875 C10.61829261 3.46951241 11.47534524 4.57124106 12.3125 5.6875 C12.78123535 6.27619873 13.2499707 6.86489746 13.73291016 7.47143555 C15.1781159 9.29776506 16.59137414 11.14536729 18 13 C18.823369 14.06576119 19.64755011 15.13089562 20.47265625 16.1953125 C21.68185235 17.76431817 22.89092204 19.33346152 24.08911133 20.91088867 C27.46578417 25.35206969 30.96701139 29.68253071 34.5 34 C39.26045752 39.82179409 43.89485922 45.71835695 48.453125 51.69921875 C51.82499092 56.09899451 55.3118648 60.40771377 58.80297852 64.71313477 C59.27662842 65.30022217 59.75027832 65.88730957 60.23828125 66.4921875 C60.8576355 67.25571533 60.8576355 67.25571533 61.48950195 68.03466797 C63.74012965 70.96299396 65.85331666 73.99464332 68 77 C68.33 51.59 68.66 26.18 69 0 C71.31 0 73.62 0 76 0 C76 30.36 76 60.72 76 92 C70 92 70 92 68.26953125 90.7421875 C67.78871094 90.12601562 67.30789063 89.50984375 66.8125 88.875 C65.93078125 87.77478516 65.93078125 87.77478516 65.03125 86.65234375 C64.3609375 85.77707031 63.690625 84.90179688 63 84 C61.73217855 82.39716877 60.46433248 80.79435696 59.19604492 79.19189453 C57.77661002 77.39198996 56.36610658 75.58536696 54.95703125 73.77734375 C52.00266961 69.99289578 49.00545298 66.24392459 46 62.5 C40.7445146 55.94629969 35.54345888 49.35159159 30.36328125 42.73828125 C28.98419601 40.97984878 27.60197149 39.22393021 26.21875 37.46875 C25.51987671 36.58135132 25.51987671 36.58135132 24.80688477 35.67602539 C23.53692439 34.0637259 22.26652758 32.4517702 20.99609375 30.83984375 C16.63428154 25.24967243 12.32316408 19.6201133 8 14 C7.67 39.74 7.34 65.48 7 92 C4.69 92 2.38 92 0 92 C0 61.64 0 31.28 0 0 Z " fill="#009DDC" transform="translate(503,419)"/>
<path d="M0 0 C2.64 0 5.28 0 8 0 C17.08872276 19.11198837 26.0887857 38.25591136 34.79150391 57.54711914 C38.79626182 66.4144707 42.90232941 75.22480124 47.20874023 83.95092773 C47.58200439 84.71735596 47.95526855 85.48378418 48.33984375 86.2734375 C48.66331787 86.92747559 48.98679199 87.58151367 49.32006836 88.25537109 C50 90 50 90 50 93 C47.36 93 44.72 93 42 93 C40.72130916 90.52462463 39.45204869 88.04509034 38.1875 85.5625 C37.83107422 84.87478516 37.47464844 84.18707031 37.10742188 83.47851562 C36.58051758 82.43920898 36.58051758 82.43920898 36.04296875 81.37890625 C35.72352295 80.7557251 35.40407715 80.13254395 35.07495117 79.49047852 C33.46449106 75.75931713 32.28511272 71.85533816 31 68 C13.18 68 -4.64 68 -23 68 C-23.99 70.97 -24.98 73.94 -26 77 C-26.63828902 78.47880678 -27.30823429 79.94557181 -28.04296875 81.37890625 C-28.39423828 82.07177734 -28.74550781 82.76464844 -29.10742188 83.47851562 C-29.46384766 84.16623047 -29.82027344 84.85394531 -30.1875 85.5625 C-30.55552734 86.28501953 -30.92355469 87.00753906 -31.30273438 87.75195312 C-32.19624313 89.50415862 -33.09730775 91.25250788 -34 93 C-36.64 93 -39.28 93 -42 93 C-40.47588212 88.05873616 -38.47172874 83.48536618 -36.28125 78.81640625 C-35.91084595 78.01995193 -35.54044189 77.22349762 -35.15881348 76.40290833 C-34.35908527 74.68426522 -33.55788788 72.96630515 -32.75537109 71.2489624 C-31.48638026 68.5333541 -30.22116381 65.81601748 -28.95703125 63.09814453 C-27.64239231 60.27181911 -26.32751375 57.44560783 -25.01147461 54.61993408 C-20.71589659 45.39681061 -16.44241812 36.16355169 -12.17797852 26.92599487 C-11.02003371 24.4183844 -9.86066237 21.91143707 -8.70117188 19.40454102 C-7.98820267 17.86087614 -7.27530803 16.31717681 -6.5625 14.7734375 C-6.24454468 14.08659378 -5.92658936 13.39975006 -5.59899902 12.6920929 C-3.66106756 8.48999413 -1.80560593 4.26070542 0 0 Z M3 11 C0.66766057 16.04834044 -1.66171558 21.09803431 -3.98852539 26.14892578 C-4.77810532 27.86185279 -5.56845048 29.57442731 -6.35961914 31.28662109 C-7.50615716 33.7682486 -8.64980361 36.25119228 -9.79296875 38.734375 C-10.13901657 39.48176941 -10.48506439 40.22916382 -10.84159851 40.99920654 C-13.72706505 47.27862312 -16.33619835 53.60687603 -19 60 C-3.82 60 11.36 60 27 60 C19.91702811 43.54250649 12.57253316 27.23722089 5 11 C4.34 11 3.68 11 3 11 Z " fill="#009DDC" transform="translate(906,418)"/>
<path d="M0 0 C0.49886719 0.48339844 0.99773437 0.96679688 1.51171875 1.46484375 C1.51171875 4.98200678 0.6872629 5.83606123 -1.48828125 8.46484375 C-6.39739511 6.5934136 -10.98413205 4.21036332 -15.6484375 1.8046875 C-22.95157911 -1.64094878 -32.32649368 -1.93570282 -39.98828125 0.65234375 C-44.49450192 2.98592231 -47.33845458 5.38420502 -49.80078125 9.83984375 C-51.00382993 14.43330234 -51.04978658 18.07094714 -49.265625 22.5 C-44.78474188 29.97470392 -34.92711189 31.72140676 -26.97900391 33.71459961 C-25.97144043 33.96218018 -24.96387695 34.20976074 -23.92578125 34.46484375 C-4.30259959 39.29924505 -4.30259959 39.29924505 1.63671875 47.15234375 C5.51375377 54.00177229 5.84765977 62.33837127 3.86328125 69.953125 C0.77947369 76.74013737 -4.58441943 80.89370958 -11.30078125 83.83984375 C-23.20209517 87.73600979 -37.17241715 86.56662259 -48.48828125 81.46484375 C-53.59662761 78.66574986 -58.49662741 75.75652386 -62.48828125 71.46484375 C-61.48828125 69.46484375 -60.48828125 67.46484375 -59.48828125 65.46484375 C-55.90044597 66.07640658 -53.83605308 67.56082801 -50.98828125 69.77734375 C-41.33356151 76.6372762 -31.24306405 78.82433382 -19.48828125 77.46484375 C-14.49541894 76.23633684 -10.73017658 74.64464431 -6.98828125 71.08984375 C-4.10109374 66.03726561 -3.22448931 62.20472891 -3.80859375 56.4921875 C-5.08755497 52.67735489 -7.39271389 50.13106714 -10.80078125 48.05859375 C-17.32232318 45.40447785 -23.76967849 43.5860799 -30.61328125 41.96484375 C-41.73280832 39.30401528 -50.91870239 36.48201501 -57.48828125 26.46484375 C-60.22218309 19.68952179 -60.38989513 13.2540664 -57.58984375 6.515625 C-53.53634103 -1.03078965 -47.76634753 -5.45185174 -39.74609375 -8.11328125 C-25.70387952 -10.73708598 -11.79631941 -7.98422337 0 0 Z " fill="#009DDC" transform="translate(1481.48828125,426.53515625)"/>
<path d="M0 0 C2.97 0 5.94 0 9 0 C11.80924993 6.59151636 14.6181152 13.1831965 17.42654896 19.77506065 C18.73202832 22.83920925 20.03765536 25.9032947 21.34350586 28.96728516 C28.58860398 45.96715254 35.80882286 62.97725614 43 80 C45.32452103 77.11487397 46.86902896 74.33059301 48.30908203 70.92211914 C48.74028351 69.90908218 49.17148499 68.89604523 49.61575317 67.85231018 C50.07513275 66.75764938 50.53451233 65.66298859 51.0078125 64.53515625 C51.49273163 63.39203476 51.97765076 62.24891327 52.4772644 61.07115173 C53.76989121 58.02141824 55.05778226 54.96977446 56.34332275 51.91705322 C57.61846964 48.89172816 58.89930973 45.8688173 60.1796875 42.84570312 C62.17214632 38.14001233 64.16327158 33.43376128 66.15332031 28.72705078 C68.82228594 22.41812334 71.49374977 16.11031681 74.1796875 9.80859375 C74.55481476 8.92349625 74.92994202 8.03839874 75.31643677 7.1264801 C75.65786713 6.32733688 75.99929749 5.52819366 76.35107422 4.70483398 C76.64730682 4.00889633 76.94353943 3.31295868 77.24874878 2.59593201 C78 1 78 1 79 0 C81.67058851 -0.14115161 84.32432238 -0.04247107 87 0 C85.10562764 5.98829053 82.92618361 11.74291887 80.3671875 17.4765625 C80.01766022 18.26890793 79.66813293 19.06125336 79.30801392 19.87760925 C78.16729572 22.46168997 77.02113165 25.04331643 75.875 27.625 C74.66905523 30.35327963 73.46456916 33.08220015 72.26019287 35.81117249 C71.43141745 37.68892368 70.60218917 39.56647506 69.77252197 41.4438324 C66.86283716 48.03100218 63.97482003 54.62733303 61.1015625 61.23046875 C60.71153046 62.1268103 60.32149841 63.02315186 59.91964722 63.94665527 C58.40865108 67.42057655 56.89847214 70.89485105 55.3895874 74.36968994 C54.35436123 76.75335678 53.31788203 79.13647555 52.28125 81.51953125 C51.9768399 82.22184372 51.67242981 82.92415619 51.35879517 83.64775085 C49.98340601 86.80788343 48.58731265 89.93993811 47 93 C44.69 93 42.38 93 40 93 C32.65632214 77.21477447 25.60395839 61.31559198 18.72634888 45.32263184 C16.74451061 40.71750854 14.74840282 36.11874969 12.74549866 31.52275085 C11.25612233 28.10505062 9.76951675 24.68614815 8.28305054 21.2671814 C7.55476148 19.5938349 6.82529604 17.92099989 6.09463501 16.24868774 C5.0740599 13.91202563 4.0580172 11.57344208 3.04296875 9.234375 C2.73426849 8.53062241 2.42556824 7.82686981 2.10751343 7.10179138 C0 2.22785739 0 2.22785739 0 0 Z " fill="#009DDC" transform="translate(754,419)"/>
<path d="M0 0 C23.43 0 46.86 0 71 0 C71 2.31 71 4.62 71 7 C60.77 7 50.54 7 40 7 C40 35.05 40 63.1 40 92 C37.36 92 34.72 92 32 92 C32 63.95 32 35.9 32 7 C21.44 7 10.88 7 0 7 C0 4.69 0 2.38 0 0 Z " fill="#009DDC" transform="translate(982,419)"/>
<path d="M0 0 C2.64 0 5.28 0 8 0 C8 30.36 8 60.72 8 92 C5.36 92 2.72 92 0 92 C0 61.64 0 31.28 0 0 Z " fill="#009DDC" transform="translate(1099,419)"/>
<path d="M0 0 C2.31 0 4.62 0 7 0 C7 30.36 7 60.72 7 92 C4.69 92 2.38 92 0 92 C0 61.64 0 31.28 0 0 Z " fill="#009DDC" transform="translate(314,419)"/>
</svg>
